<svg xmlns="http://www.w3.org/2000/svg" viewBox="0 0 1200 630" width="1200" height="630">
  <defs>
    <linearGradient id="bg" x1="0" y1="0" x2="1" y2="1">
      <stop offset="0%" stop-color="#0A0F1F"/>
      <stop offset="50%" stop-color="#001F3F"/>
      <stop offset="100%" stop-color="#0A1628"/>
    </linearGradient>
    <linearGradient id="tealGlow" x1="0" y1="0" x2="1" y2="1">
      <stop offset="0%" stop-color="#00E5A0" stop-opacity="0.15"/>
      <stop offset="100%" stop-color="#00E5A0" stop-opacity="0.02"/>
    </linearGradient>
    <radialGradient id="pulse" cx="0.5" cy="0.5" r="0.5">
      <stop offset="0%" stop-color="#00E5A0" stop-opacity="0.12"/>
      <stop offset="100%" stop-color="#00E5A0" stop-opacity="0"/>
    </radialGradient>
    <filter id="glow">
      <feGaussianBlur stdDeviation="3" result="blur"/>
      <feMerge><feMergeNode in="blur"/><feMergeNode in="SourceGraphic"/></feMerge>
    </filter>
  </defs>

  <!-- Background -->
  <rect width="1200" height="630" fill="url(#bg)"/>

  <!-- Subtle grid pattern -->
  <g opacity="0.04" stroke="#00E5A0">
    <line x1="0" y1="0" x2="1200" y2="0" stroke-width="0.5"/>
    <line x1="0" y1="100" x2="1200" y2="100" stroke-width="0.5"/>
    <line x1="0" y1="200" x2="1200" y2="200" stroke-width="0.5"/>
    <line x1="0" y1="300" x2="1200" y2="300" stroke-width="0.5"/>
    <line x1="0" y1="400" x2="1200" y2="400" stroke-width="0.5"/>
    <line x1="0" y1="500" x2="1200" y2="500" stroke-width="0.5"/>
    <line x1="0" y1="600" x2="1200" y2="600" stroke-width="0.5"/>
    <line x1="200" y1="0" x2="200" y2="630" stroke-width="0.5"/>
    <line x1="400" y1="0" x2="400" y2="630" stroke-width="0.5"/>
    <line x1="600" y1="0" x2="600" y2="630" stroke-width="0.5"/>
    <line x1="800" y1="0" x2="800" y2="630" stroke-width="0.5"/>
    <line x1="1000" y1="0" x2="1000" y2="630" stroke-width="0.5"/>
  </g>

  <!-- Pulse circle behind icon -->
  <circle cx="220" cy="315" r="160" fill="url(#pulse)"/>

  <!-- Central medical/AI icon -->
  <g transform="translate(220, 315)" filter="url(#glow)">
    <!-- Caduceus-like cross with circuit motif -->
    <!-- Vertical bar -->
    <rect x="-8" y="-60" width="16" height="120" rx="4" fill="none" stroke="#00E5A0" stroke-width="3"/>
    <!-- Horizontal bar -->
    <rect x="-45" y="-8" width="90" height="16" rx="4" fill="none" stroke="#00E5A0" stroke-width="3"/>
    <!-- Center circle (neural node) -->
    <circle cx="0" cy="0" r="10" fill="#00E5A0" opacity="0.3"/>
    <circle cx="0" cy="0" r="4" fill="#00E5A0"/>

    <!-- Circuit branches from the cross -->
    <path d="M -45,0 L -70,0 L -70,-25" stroke="#00E5A0" stroke-width="1.5" fill="none" opacity="0.5"/>
    <path d="M 45,0 L 70,0 L 70,25" stroke="#00E5A0" stroke-width="1.5" fill="none" opacity="0.5"/>
    <path d="M 0,-60 L 0,-85 L -25,-85" stroke="#00E5A0" stroke-width="1.5" fill="none" opacity="0.5"/>
    <path d="M 0,60 L 0,85 L 25,85" stroke="#00E5A0" stroke-width="1.5" fill="none" opacity="0.5"/>

    <!-- Circuit nodes -->
    <circle cx="-70" cy="-25" r="3" fill="#00E5A0" opacity="0.6"/>
    <circle cx="70" cy="25" r="3" fill="#00E5A0" opacity="0.6"/>
    <circle cx="-25" cy="-85" r="3" fill="#00E5A0" opacity="0.6"/>
    <circle cx="25" cy="85" r="3" fill="#00E5A0" opacity="0.6"/>
  </g>

  <!-- Right side decorative circuits -->
  <g opacity="0.06" stroke="#00E5A0" stroke-width="1.5" fill="none">
    <path d="M 900,50 L 1050,50 L 1050,150 L 1150,150"/>
    <path d="M 950,100 L 1100,100"/>
    <path d="M 1000,150 L 1000,250 L 900,250"/>
    <path d="M 850,200 L 800,200"/>
    <circle cx="1150" cy="150" r="4" fill="#00E5A0" opacity="0.3"/>
    <circle cx="1100" cy="100" r="2.5" fill="#00E5A0" opacity="0.3"/>
    <circle cx="900" cy="250" r="2.5" fill="#00E5A0" opacity="0.3"/>
    <circle cx="800" cy="200" r="3" fill="#00E5A0" opacity="0.3"/>
    <!-- Bottom circuits -->
    <path d="M 850,400 L 950,400 L 950,500"/>
    <path d="M 1050,420 L 1150,420"/>
    <path d="M 1000,500 L 1000,550 L 1100,550"/>
    <circle cx="950" cy="500" r="2.5" fill="#00E5A0" opacity="0.3"/>
    <circle cx="1150" cy="420" r="3" fill="#00E5A0" opacity="0.3"/>
    <circle cx="1100" cy="550" r="4" fill="#00E5A0" opacity="0.3"/>
  </g>

  <!-- Title text -->
  <text x="430" y="270" fill="#E2E8F0" font-family="system-ui, -apple-system, sans-serif" font-size="48" font-weight="bold" letter-spacing="-1">
    Dr J
  </text>

  <!-- Subtitle -->
  <text x="430" y="320" fill="#00E5A0" font-family="system-ui, -apple-system, sans-serif" font-size="22" font-weight="400" letter-spacing="1.5">
    SYSTEMS PHYSICIAN
  </text>

  <!-- Divider line -->
  <line x1="430" y1="345" x2="750" y2="345" stroke="#00E5A0" stroke-width="2" stroke-opacity="0.3"/>

  <!-- Tagline -->
  <text x="430" y="380" fill="#94A3B8" font-family="system-ui, -apple-system, sans-serif" font-size="16" font-weight="400">
    Diagnostics, maintenance, and operational wisdom
  </text>

  <!-- Bottom accent bar -->
  <rect x="0" y="627" width="1200" height="3" fill="#00E5A0" opacity="0.4"/>
</svg>
