<svg xmlns="http://www.w3.org/2000/svg" viewBox="0 0 1024 576">
  <defs>
    <linearGradient id="bg" x1="0%" y1="0%" x2="100%" y2="100%">
      <stop offset="0%" stop-color="#0a1628"/>
      <stop offset="50%" stop-color="#132042"/>
      <stop offset="100%" stop-color="#0d1a30"/>
    </linearGradient>
    <linearGradient id="amber" x1="0%" y1="0%" x2="100%" y2="0%">
      <stop offset="0%" stop-color="#d4920a"/>
      <stop offset="100%" stop-color="#f5b731"/>
    </linearGradient>
    <linearGradient id="glow" x1="50%" y1="0%" x2="50%" y2="100%">
      <stop offset="0%" stop-color="#f5b731" stop-opacity="0.25"/>
      <stop offset="100%" stop-color="#f5b731" stop-opacity="0"/>
    </linearGradient>
    <filter id="blur">
      <feGaussianBlur stdDeviation="3"/>
    </filter>
  </defs>

  <!-- Background -->
  <rect width="1024" height="576" fill="url(#bg)"/>

  <!-- Grid lines -->
  <g stroke="#1a2d50" stroke-width="0.5" opacity="0.4">
    <line x1="0" y1="96" x2="1024" y2="96"/>
    <line x1="0" y1="192" x2="1024" y2="192"/>
    <line x1="0" y1="288" x2="1024" y2="288"/>
    <line x1="0" y1="384" x2="1024" y2="384"/>
    <line x1="0" y1="480" x2="1024" y2="480"/>
    <line x1="170" y1="0" x2="170" y2="576"/>
    <line x1="341" y1="0" x2="341" y2="576"/>
    <line x1="512" y1="0" x2="512" y2="576"/>
    <line x1="683" y1="0" x2="683" y2="576"/>
    <line x1="853" y1="0" x2="853" y2="576"/>
  </g>

  <!-- Central amber glow -->
  <ellipse cx="512" cy="270" rx="300" ry="210" fill="url(#glow)"/>

  <!-- Left: Trace timeline panel -->
  <rect x="50" y="110" width="300" height="330" rx="8" fill="#0c1525" stroke="#d4920a" stroke-width="1.5" opacity="0.9"/>
  <rect x="50" y="110" width="300" height="28" rx="8" fill="#162340"/>
  <circle cx="70" cy="124" r="5" fill="#ff5f57"/>
  <circle cx="86" cy="124" r="5" fill="#febc2e"/>
  <circle cx="102" cy="124" r="5" fill="#28c840"/>
  <text x="200" y="128" fill="#8b949e" font-family="monospace" font-size="10" text-anchor="middle">trace_7f3a.log</text>

  <!-- Trace spans -->
  <text x="66" y="162" fill="#8b949e" font-family="monospace" font-size="10">turn 04</text>
  <rect x="120" y="155" width="190" height="10" rx="2" fill="#f5b731" opacity="0.85"/>
  <text x="314" y="163" fill="#f5b731" font-family="monospace" font-size="9">read_file</text>

  <text x="66" y="184" fill="#8b949e" font-family="monospace" font-size="10">turn 04</text>
  <rect x="130" y="177" width="160" height="10" rx="2" fill="#79c0ff" opacity="0.85"/>
  <text x="296" y="185" fill="#79c0ff" font-family="monospace" font-size="9">patch</text>

  <text x="66" y="206" fill="#8b949e" font-family="monospace" font-size="10">turn 05</text>
  <rect x="120" y="199" width="220" height="10" rx="2" fill="#f5b731" opacity="0.85"/>
  <text x="344" y="207" fill="#f5b731" font-family="monospace" font-size="9">terminal</text>

  <text x="66" y="228" fill="#8b949e" font-family="monospace" font-size="10">turn 05</text>
  <rect x="160" y="221" width="120" height="10" rx="2" fill="#7ee787" opacity="0.85"/>
  <text x="286" y="229" fill="#7ee787" font-family="monospace" font-size="9">build</text>

  <text x="66" y="250" fill="#8b949e" font-family="monospace" font-size="10">turn 06</text>
  <rect x="120" y="243" width="80" height="10" rx="2" fill="#d4920a" opacity="0.7"/>
  <text x="206" y="251" fill="#d4920a" font-family="monospace" font-size="9">git</text>

  <text x="66" y="272" fill="#8b949e" font-family="monospace" font-size="10">turn 06</text>
  <rect x="155" y="265" width="100" height="10" rx="2" fill="#f85149" opacity="0.85"/>
  <text x="261" y="273" fill="#f85149" font-family="monospace" font-size="9">curl 200</text>

  <text x="66" y="294" fill="#8b949e" font-family="monospace" font-size="10">turn 07</text>
  <rect x="120" y="287" width="200" height="10" rx="2" fill="#79c0ff" opacity="0.85"/>
  <text x="326" y="295" fill="#79c0ff" font-family="monospace" font-size="9">search</text>

  <text x="66" y="316" fill="#8b949e" font-family="monospace" font-size="10">turn 08</text>
  <rect x="130" y="309" width="170" height="10" rx="2" fill="#f5b731" opacity="0.85"/>
  <text x="306" y="317" fill="#f5b731" font-family="monospace" font-size="9">write_file</text>

  <text x="66" y="338" fill="#8b949e" font-family="monospace" font-size="10">turn 08</text>
  <rect x="145" y="331" width="150" height="10" rx="2" fill="#7ee787" opacity="0.85"/>
  <text x="301" y="339" fill="#7ee787" font-family="monospace" font-size="9">verify</text>

  <line x1="66" y1="360" x2="334" y2="360" stroke="#1a2d50" stroke-width="0.5"/>
  <text x="66" y="382" fill="#7ee787" font-family="monospace" font-size="10">total: 8 turns · 11 spans</text>
  <text x="66" y="400" fill="#f85149" font-family="monospace" font-size="10">failures: 0 · retries: 0</text>
  <text x="66" y="418" fill="#8b949e" font-family="monospace" font-size="9">latency p95: 1.4s</text>

  <!-- Center: Agent node with trace ID -->
  <circle cx="512" cy="270" r="42" fill="#0d1a30" stroke="#f5b731" stroke-width="2"/>
  <text x="512" y="263" fill="#f5b731" font-family="monospace" font-size="11" text-anchor="middle" font-weight="bold">AGENT</text>
  <text x="512" y="280" fill="#d4920a" font-family="monospace" font-size="9" text-anchor="middle">trace_7f3a</text>

  <!-- Delegation arrows -->
  <g stroke="#f5b731" stroke-width="1.5" fill="none" opacity="0.7" stroke-dasharray="4,3">
    <line x1="475" y1="248" x2="420" y2="210"/>
    <line x1="475" y1="292" x2="420" y2="330"/>
  </g>

  <!-- Right: Metrics dashboard -->
  <rect x="640" y="110" width="330" height="330" rx="8" fill="#0c1525" stroke="#d4920a" stroke-width="1.5" opacity="0.9"/>
  <rect x="640" y="110" width="330" height="28" rx="8" fill="#162340"/>
  <text x="805" y="128" fill="#8b949e" font-family="monospace" font-size="10" text-anchor="middle">agent_metrics.json</text>

  <!-- Metric rows -->
  <text x="656" y="162" fill="#8b949e" font-family="monospace" font-size="11">tool_success_rate</text>
  <text x="954" y="162" fill="#7ee787" font-family="monospace" font-size="11" text-anchor="end">0.97</text>
  <rect x="656" y="168" width="298" height="4" rx="2" fill="#1a2d50"/>
  <rect x="656" y="168" width="289" height="4" rx="2" fill="#7ee787"/>

  <text x="656" y="196" fill="#8b949e" font-family="monospace" font-size="11">avg_turns_to_done</text>
  <text x="954" y="196" fill="#f5b731" font-family="monospace" font-size="11" text-anchor="end">6.2</text>
  <rect x="656" y="202" width="298" height="4" rx="2" fill="#1a2d50"/>
  <rect x="656" y="202" width="180" height="4" rx="2" fill="#f5b731"/>

  <text x="656" y="230" fill="#8b949e" font-family="monospace" font-size="11">hallucination_rate</text>
  <text x="954" y="230" fill="#7ee787" font-family="monospace" font-size="11" text-anchor="end">0.03</text>
  <rect x="656" y="236" width="298" height="4" rx="2" fill="#1a2d50"/>
  <rect x="656" y="236" width="9" height="4" rx="2" fill="#7ee787"/>

  <text x="656" y="264" fill="#8b949e" font-family="monospace" font-size="11">replay_accuracy</text>
  <text x="954" y="264" fill="#f5b731" font-family="monospace" font-size="11" text-anchor="end">0.94</text>
  <rect x="656" y="270" width="298" height="4" rx="2" fill="#1a2d50"/>
  <rect x="656" y="270" width="280" height="4" rx="2" fill="#f5b731"/>

  <text x="656" y="298" fill="#8b949e" font-family="monospace" font-size="11">context_compression</text>
  <text x="954" y="298" fill="#79c0ff" font-family="monospace" font-size="11" text-anchor="end">0.21</text>
  <rect x="656" y="304" width="298" height="4" rx="2" fill="#1a2d50"/>
  <rect x="656" y="304" width="63" height="4" rx="2" fill="#79c0ff"/>

  <text x="656" y="332" fill="#8b949e" font-family="monospace" font-size="11">cost_per_task_usd</text>
  <text x="954" y="332" fill="#7ee787" font-family="monospace" font-size="11" text-anchor="end">0.04</text>
  <rect x="656" y="338" width="298" height="4" rx="2" fill="#1a2d50"/>
  <rect x="656" y="338" width="12" height="4" rx="2" fill="#7ee787"/>

  <line x1="656" y1="360" x2="954" y2="360" stroke="#1a2d50" stroke-width="0.5"/>
  <text x="656" y="384" fill="#8b949e" font-family="monospace" font-size="9">window: last 24h</text>
  <text x="954" y="384" fill="#8b949e" font-family="monospace" font-size="9" text-anchor="end">n=312 tasks</text>
  <text x="656" y="406" fill="#f5b731" font-family="monospace" font-size="9">correlation: tool_success → quality</text>
  <text x="656" y="424" fill="#7ee787" font-family="monospace" font-size="9">r = 0.81 (strong)</text>

  <!-- Bottom decorative elements -->
  <rect x="50" y="455" width="920" height="1" fill="#d4920a" opacity="0.3"/>

  <!-- Title -->
  <text x="512" y="500" fill="#f5b731" font-family="'Segoe UI', Arial, sans-serif" font-size="26" text-anchor="middle" font-weight="bold" letter-spacing="2">AGENT OBSERVABILITY</text>
  <text x="512" y="528" fill="#8b949e" font-family="'Segoe UI', Arial, sans-serif" font-size="13" text-anchor="middle">You can't debug what you can't see — build the telemetry layer</text>

  <!-- Decorative corners -->
  <path d="M20,40 L20,20 L40,20" fill="none" stroke="#d4920a" stroke-width="1.5" opacity="0.5"/>
  <path d="M1004,40 L1004,20 L984,20" fill="none" stroke="#d4920a" stroke-width="1.5" opacity="0.5"/>
  <path d="M20,536 L20,556 L40,556" fill="none" stroke="#d4920a" stroke-width="1.5" opacity="0.5"/>
  <path d="M1004,536 L1004,556 L984,556" fill="none" stroke="#d4920a" stroke-width="1.5" opacity="0.5"/>
</svg>