<svg xmlns="http://www.w3.org/2000/svg" viewBox="0 0 1200 630" width="1200" height="630">
  <defs>
    <linearGradient id="bgGrad" x1="0%" y1="0%" x2="100%" y2="100%">
      <stop offset="0%" style="stop-color:#0a1628;stop-opacity:1"/>
      <stop offset="100%" style="stop-color:#0d1a2f;stop-opacity:1"/>
    </linearGradient>
    <radialGradient id="glowGrad" cx="50%" cy="50%" r="50%">
      <stop offset="0%" style="stop-color:#00E5A0;stop-opacity:0.12"/>
      <stop offset="100%" style="stop-color:#00E5A0;stop-opacity:0"/>
    </radialGradient>
  </defs>
  <rect width="1200" height="630" fill="url(#bgGrad)"/>
  <pattern id="grid-style-transfer-teaching-ai-your-voice" width="60" height="60" patternUnits="userSpaceOnUse">
    <path d="M 60 0 L 0 0 0 60" fill="none" stroke="#00E5A0" stroke-width="0.5" stroke-opacity="0.08"/>
  </pattern>
  <rect width="1200" height="630" fill="url(#grid-style-transfer-teaching-ai-your-voice)"/>
  <circle cx="600" cy="315" r="260" fill="url(#glowGrad)"/>
  <g transform="translate(600, 315)" opacity="0.85">
    <circle cx="0" cy="0" r="130" fill="none" stroke="#00E5A0" stroke-width="1" opacity="0.15"/>
    <circle cx="0" cy="0" r="100" fill="none" stroke="#00E5A0" stroke-width="1" opacity="0.2"/>
    <path d="M -180 0 Q -150 -40 -120 0 T -60 0 T 0 0 T 60 0 T 120 0 T 180 0" fill="none" stroke="#00E5A0" stroke-width="3" opacity="0.8"/>
    <path d="M -180 30 Q -150 70 -120 30 T -60 30 T 0 30 T 60 30 T 120 30 T 180 30" fill="none" stroke="#00E5A0" stroke-width="2" opacity="0.5"/>
    <path d="M -180 -30 Q -150 -70 -120 -30 T -60 -30 T 0 -30 T 60 -30 T 120 -30 T 180 -30" fill="none" stroke="#00E5A0" stroke-width="2" opacity="0.5"/>
    <circle cx="0" cy="0" r="35" fill="none" stroke="#00E5A0" stroke-width="2" opacity="0.7"/>
  </g>
  <text x="600" y="80" text-anchor="middle" font-family="system-ui, -apple-system, sans-serif" font-size="14" font-weight="500" fill="#00E5A0" opacity="0.6" letter-spacing="4">THE ALCHEMY OF LANGUAGE</text>
  <rect x="0" y="480" width="1200" height="150" fill="#0a1628" opacity="0.7"/>
  <text x="600" y="530" text-anchor="middle" font-family="system-ui, -apple-system, sans-serif" font-size="30" font-weight="600" fill="#ffffff">Style Transfer: Teaching AI Your Voice</text>
  <text x="600" y="565" text-anchor="middle" font-family="system-ui, -apple-system, sans-serif" font-size="16" font-weight="400" fill="#00E5A0" opacity="0.7">Imprinting your rhythm on the machine</text>
  <text x="600" y="605" text-anchor="middle" font-family="system-ui, -apple-system, sans-serif" font-size="11" font-weight="400" fill="#ffffff" opacity="0.35">Harry's Desk — The Alchemy of Language</text>
</svg>
