<svg xmlns="http://www.w3.org/2000/svg" viewBox="0 0 1200 630" width="1200" height="630">
  <defs>
    <linearGradient id="bgGrad" x1="0%" y1="0%" x2="100%" y2="100%">
      <stop offset="0%" style="stop-color:#0a1628;stop-opacity:1"/>
      <stop offset="100%" style="stop-color:#0d1a2f;stop-opacity:1"/>
    </linearGradient>
    <radialGradient id="glowGrad" cx="50%" cy="50%" r="50%">
      <stop offset="0%" style="stop-color:#00E5A0;stop-opacity:0.12"/>
      <stop offset="100%" style="stop-color:#00E5A0;stop-opacity:0"/>
    </radialGradient>
  </defs>
  <rect width="1200" height="630" fill="url(#bgGrad)"/>
  <pattern id="grid-template" width="60" height="60" patternUnits="userSpaceOnUse">
    <path d="M 60 0 L 0 0 0 60" fill="none" stroke="#00E5A0" stroke-width="0.5" stroke-opacity="0.08"/>
  </pattern>
  <rect width="1200" height="630" fill="url(#grid-template)"/>
  <circle cx="600" cy="315" r="260" fill="url(#glowGrad)"/>
  <g transform="translate(600, 310)" opacity="0.9">
    <rect x="-70" y="-95" width="140" height="190" rx="6" fill="none" stroke="#00E5A0" stroke-width="2.5"/>
    <path d="M -70 -95 L -70 -75 L -50 -95 Z" fill="#00E5A0" opacity="0.25"/>
    <line x1="-52" y1="-75" x2="70" y2="-75" stroke="#00E5A0" stroke-width="1.5"/>
    <line x1="-50" y1="-55" x2="50" y2="-55" stroke="#00E5A0" stroke-width="2" stroke-linecap="round"/>
    <line x1="-50" y1="-35" x2="40" y2="-35" stroke="#00E5A0" stroke-width="2" stroke-linecap="round" opacity="0.7"/>
    <line x1="-50" y1="-15" x2="45" y2="-15" stroke="#00E5A0" stroke-width="2" stroke-linecap="round" opacity="0.7"/>
    <line x1="-50" y1="5" x2="30" y2="5" stroke="#00E5A0" stroke-width="2" stroke-linecap="round" opacity="0.5"/>
    <path d="M -45 55 C -25 45, -10 75, 10 55 C 25 40, 40 60, 55 50" fill="none" stroke="#00E5A0" stroke-width="2.5" stroke-linecap="round"/>
    <circle cx="-95" cy="-55" r="8" fill="none" stroke="#00E5A0" stroke-width="2"/>
    <circle cx="95" cy="-55" r="8" fill="none" stroke="#00E5A0" stroke-width="2"/>
    <circle cx="-95" cy="55" r="8" fill="none" stroke="#00E5A0" stroke-width="2"/>
    <circle cx="95" cy="55" r="8" fill="none" stroke="#00E5A0" stroke-width="2"/>
    <line x1="-78" y1="-55" x2="-87" y2="-55" stroke="#00E5A0" stroke-width="1.5"/>
    <line x1="78" y1="-55" x2="87" y2="-55" stroke="#00E5A0" stroke-width="1.5"/>
    <line x1="-78" y1="55" x2="-87" y2="55" stroke="#00E5A0" stroke-width="1.5"/>
    <line x1="78" y1="55" x2="87" y2="55" stroke="#00E5A0" stroke-width="1.5"/>
  </g>
  <text x="600" y="80" text-anchor="middle" font-family="system-ui, -apple-system, sans-serif" font-size="14" font-weight="500" fill="#00E5A0" opacity="0.6" letter-spacing="4">THE ALCHEMY OF LANGUAGE</text>
  <rect x="0" y="480" width="1200" height="150" fill="#0a1628" opacity="0.7"/>
  <text x="600" y="530" text-anchor="middle" font-family="system-ui, -apple-system, sans-serif" font-size="30" font-weight="600" fill="#ffffff">Workshop Capstone</text>
  <text x="600" y="565" text-anchor="middle" font-family="system-ui, -apple-system, sans-serif" font-size="16" font-weight="400" fill="#00E5A0" opacity="0.7">Your Personal AI Writing Manifesto</text>
  <text x="600" y="605" text-anchor="middle" font-family="system-ui, -apple-system, sans-serif" font-size="11" font-weight="400" fill="#ffffff" opacity="0.35">
    Harry's Desk — Week 7, Article 3
  </text>
</svg>
