<svg xmlns="http://www.w3.org/2000/svg" viewBox="0 0 1200 630" width="1200" height="630">
  <defs>
    <linearGradient id="bgGrad" x1="0%" y1="0%" x2="100%" y2="100%">
      <stop offset="0%" style="stop-color:#0a1628;stop-opacity:1"/>
      <stop offset="100%" style="stop-color:#0d1a2f;stop-opacity:1"/>
    </linearGradient>
    <radialGradient id="glowGrad" cx="50%" cy="50%" r="50%">
      <stop offset="0%" style="stop-color:#00E5A0;stop-opacity:0.12"/>
      <stop offset="100%" style="stop-color:#00E5A0;stop-opacity:0"/>
    </radialGradient>
  </defs>
  <rect width="1200" height="630" fill="url(#bgGrad)"/>
  <pattern id="grid-the-dialogue-method-conversing-your-way-to-better-prose" width="60" height="60" patternUnits="userSpaceOnUse">
    <path d="M 60 0 L 0 0 0 60" fill="none" stroke="#00E5A0" stroke-width="0.5" stroke-opacity="0.08"/>
  </pattern>
  <rect width="1200" height="630" fill="url(#grid-the-dialogue-method-conversing-your-way-to-better-prose)"/>
  <circle cx="600" cy="315" r="260" fill="url(#glowGrad)"/>
  <g transform="translate(600, 315)" opacity="0.85">
    <path d="M -180 -40 L 0 -40 L 0 40 L -40 40 L -60 70 L -80 40 L -180 40 Z" fill="none" stroke="#00E5A0" stroke-width="2.5" opacity="0.85"/>
    <line x1="-140" y1="-10" x2="-40" y2="-10" stroke="#00E5A0" stroke-width="2" opacity="0.5"/>
    <line x1="-140" y1="10" x2="-60" y2="10" stroke="#00E5A0" stroke-width="2" opacity="0.4"/>
    <path d="M 40 0 L 220 0 L 220 80 L 180 80 L 160 110 L 140 80 L 40 80 Z" fill="none" stroke="#00E5A0" stroke-width="2.5" opacity="0.85"/>
    <line x1="80" y1="30" x2="180" y2="30" stroke="#00E5A0" stroke-width="2" opacity="0.5"/>
    <line x1="80" y1="50" x2="160" y2="50" stroke="#00E5A0" stroke-width="2" opacity="0.4"/>
    <path d="M 0 -80 Q 80 -120 160 -80" fill="none" stroke="#00E5A0" stroke-width="2" opacity="0.4"/>
    <path d="M 150 -88 L 160 -80 L 150 -72" fill="none" stroke="#00E5A0" stroke-width="2" opacity="0.4"/>
  </g>
  <text x="600" y="80" text-anchor="middle" font-family="system-ui, -apple-system, sans-serif" font-size="14" font-weight="500" fill="#00E5A0" opacity="0.6" letter-spacing="4">THE ALCHEMY OF LANGUAGE</text>
  <rect x="0" y="480" width="1200" height="150" fill="#0a1628" opacity="0.7"/>
  <text x="600" y="530" text-anchor="middle" font-family="system-ui, -apple-system, sans-serif" font-size="30" font-weight="600" fill="#ffffff">The Dialogue Method — Conversing Your Way to Better Prose</text>
  <text x="600" y="565" text-anchor="middle" font-family="system-ui, -apple-system, sans-serif" font-size="16" font-weight="400" fill="#00E5A0" opacity="0.7">Revision through conversation</text>
  <text x="600" y="605" text-anchor="middle" font-family="system-ui, -apple-system, sans-serif" font-size="11" font-weight="400" fill="#ffffff" opacity="0.35">Harry's Desk — The Alchemy of Language</text>
</svg>
