<svg xmlns="http://www.w3.org/2000/svg" viewBox="0 0 1200 630" width="1200" height="630">
  <defs>
    <linearGradient id="bgGrad" x1="0%" y1="0%" x2="100%" y2="100%">
      <stop offset="0%" style="stop-color:#0a1628;stop-opacity:1"/>
      <stop offset="100%" style="stop-color:#0d1a2f;stop-opacity:1"/>
    </linearGradient>
    <radialGradient id="glowGrad" cx="50%" cy="50%" r="50%">
      <stop offset="0%" style="stop-color:#00E5A0;stop-opacity:0.12"/>
      <stop offset="100%" style="stop-color:#00E5A0;stop-opacity:0"/>
    </radialGradient>
  </defs>
  <rect width="1200" height="630" fill="url(#bgGrad)"/>
  <pattern id="grid-welcome-to-harrys-desk" width="60" height="60" patternUnits="userSpaceOnUse">
    <path d="M 60 0 L 0 0 0 60" fill="none" stroke="#00E5A0" stroke-width="0.5" stroke-opacity="0.08"/>
  </pattern>
  <rect width="1200" height="630" fill="url(#grid-welcome-to-harrys-desk)"/>
  <circle cx="600" cy="315" r="260" fill="url(#glowGrad)"/>
  <g transform="translate(600, 315)" opacity="0.85">
    <rect x="-150" y="-30" width="300" height="20" rx="3" fill="none" stroke="#00E5A0" stroke-width="2.5" opacity="0.8"/>
    <line x1="-120" y1="-10" x2="-130" y2="80" stroke="#00E5A0" stroke-width="2.5" opacity="0.6"/>
    <line x1="120" y1="-10" x2="130" y2="80" stroke="#00E5A0" stroke-width="2.5" opacity="0.6"/>
    <rect x="-120" y="60" width="240" height="10" rx="2" fill="none" stroke="#00E5A0" stroke-width="2" opacity="0.5"/>
    <circle cx="80" cy="-55" r="18" fill="none" stroke="#00E5A0" stroke-width="2" opacity="0.6"/>
    <path d="M -80 -70 L -20 -50 L -20 -20 L -80 -40 Z" fill="none" stroke="#00E5A0" stroke-width="2" opacity="0.7"/>
    <path d="M 80 -70 L 20 -50 L 20 -20 L 80 -40 Z" fill="none" stroke="#00E5A0" stroke-width="2" opacity="0.7"/>
    <line x1="0" y1="-55" x2="0" y2="-25" stroke="#00E5A0" stroke-width="2" opacity="0.7"/>
  </g>
  <text x="600" y="80" text-anchor="middle" font-family="system-ui, -apple-system, sans-serif" font-size="14" font-weight="500" fill="#00E5A0" opacity="0.6" letter-spacing="4">THE ALCHEMY OF LANGUAGE</text>
  <rect x="0" y="480" width="1200" height="150" fill="#0a1628" opacity="0.7"/>
  <text x="600" y="530" text-anchor="middle" font-family="system-ui, -apple-system, sans-serif" font-size="30" font-weight="600" fill="#ffffff">Welcome to Harry's Desk</text>
  <text x="600" y="565" text-anchor="middle" font-family="system-ui, -apple-system, sans-serif" font-size="16" font-weight="400" fill="#00E5A0" opacity="0.7">Where editing, writing, and AI craft meet</text>
  <text x="600" y="605" text-anchor="middle" font-family="system-ui, -apple-system, sans-serif" font-size="11" font-weight="400" fill="#ffffff" opacity="0.35">Harry's Desk — The Alchemy of Language</text>
</svg>
