<svg xmlns="http://www.w3.org/2000/svg" viewBox="0 0 1200 630" width="1200" height="630">
  <defs>
    <linearGradient id="bgGrad" x1="0%" y1="0%" x2="100%" y2="100%">
      <stop offset="0%" style="stop-color:#0a1628;stop-opacity:1"/>
      <stop offset="100%" style="stop-color:#0d1a2f;stop-opacity:1"/>
    </linearGradient>
    <radialGradient id="glowGrad" cx="50%" cy="50%" r="50%">
      <stop offset="0%" style="stop-color:#00E5A0;stop-opacity:0.12"/>
      <stop offset="100%" style="stop-color:#00E5A0;stop-opacity:0"/>
    </radialGradient>
  </defs>
  <rect width="1200" height="630" fill="url(#bgGrad)"/>
  <pattern id="grid-genre-calibration-training-ai-for-fiction-vs-non-fiction" width="60" height="60" patternUnits="userSpaceOnUse">
    <path d="M 60 0 L 0 0 0 60" fill="none" stroke="#00E5A0" stroke-width="0.5" stroke-opacity="0.08"/>
  </pattern>
  <rect width="1200" height="630" fill="url(#grid-genre-calibration-training-ai-for-fiction-vs-non-fiction)"/>
  <circle cx="600" cy="315" r="260" fill="url(#glowGrad)"/>
  <g transform="translate(600, 315)" opacity="0.85">
    <circle cx="-130" cy="0" r="90" fill="none" stroke="#00E5A0" stroke-width="1.5" opacity="0.2"/>
    <circle cx="-130" cy="0" r="70" fill="none" stroke="#00E5A0" stroke-width="1.5" opacity="0.3"/>
    <path d="M -170 -30 Q -130 -60 -90 -30 Q -90 20 -130 50 Q -170 20 -170 -30" fill="none" stroke="#00E5A0" stroke-width="2" opacity="0.7"/>
    <circle cx="-150" cy="-10" r="5" fill="#00E5A0" opacity="0.8"/>
    <circle cx="-110" cy="-10" r="5" fill="#00E5A0" opacity="0.8"/>
    <path d="M -155 20 Q -130 35 -105 20" fill="none" stroke="#00E5A0" stroke-width="2" opacity="0.7"/>
    <circle cx="130" cy="0" r="90" fill="none" stroke="#00E5A0" stroke-width="1.5" opacity="0.2"/>
    <circle cx="130" cy="0" r="70" fill="none" stroke="#00E5A0" stroke-width="1.5" opacity="0.3"/>
    <rect x="90" y="-40" width="80" height="80" rx="6" fill="none" stroke="#00E5A0" stroke-width="2" opacity="0.7"/>
    <line x1="100" y1="-20" x2="160" y2="-20" stroke="#00E5A0" stroke-width="2" opacity="0.5"/>
    <line x1="100" y1="0" x2="150" y2="0" stroke="#00E5A0" stroke-width="2" opacity="0.4"/>
    <line x1="100" y1="20" x2="155" y2="20" stroke="#00E5A0" stroke-width="2" opacity="0.5"/>
    <path d="M -40 0 L 40 0" stroke="#00E5A0" stroke-width="2" opacity="0.5"/>
    <path d="M 30 -8 L 40 0 L 30 8" fill="none" stroke="#00E5A0" stroke-width="2" opacity="0.5"/>
  </g>
  <text x="600" y="80" text-anchor="middle" font-family="system-ui, -apple-system, sans-serif" font-size="14" font-weight="500" fill="#00E5A0" opacity="0.6" letter-spacing="4">THE ALCHEMY OF LANGUAGE</text>
  <rect x="0" y="480" width="1200" height="150" fill="#0a1628" opacity="0.7"/>
  <text x="600" y="530" text-anchor="middle" font-family="system-ui, -apple-system, sans-serif" font-size="30" font-weight="600" fill="#ffffff">Genre Calibration: Training AI for Fiction vs Non-Fiction</text>
  <text x="600" y="565" text-anchor="middle" font-family="system-ui, -apple-system, sans-serif" font-size="16" font-weight="400" fill="#00E5A0" opacity="0.7">Switching masks between story and evidence</text>
  <text x="600" y="605" text-anchor="middle" font-family="system-ui, -apple-system, sans-serif" font-size="11" font-weight="400" fill="#ffffff" opacity="0.35">Harry's Desk — The Alchemy of Language</text>
</svg>
